<svg t="1553846964568" class="icon" viewBox="0 0 1024 1024" version="1.1" xmlns="http://www.w3.org/2000/svg" p-id="2793" height="20" width="20"><path d="M787.26816 999.84c-11.072 0-24-3.712-35.056-9.248l-239.968-119.968-241.808 119.968c-24 12.928-55.36 11.088-77.52-5.536-22.144-16.624-35.072-46.16-29.536-73.824L213.22016 652.8 23.10816 475.616c-20.32-20.32-27.68-51.68-20.32-77.536 9.248-27.68 31.392-48 60.928-51.68l263.952-48 118.128-239.936C458.72416 32.624 484.56416 16 512.24416 16c27.68 0 55.376 16.608 66.464 42.464l118.128 239.952 263.952 46.144c27.68 3.68 51.68 24 59.056 51.68a75.248 75.248 0 0 1-18.448 77.536L811.26816 652.8l48 258.4c5.536 29.536-7.392 57.232-29.536 73.84-11.072 9.232-25.84 14.768-42.464 14.768z" fill="#d81e06" p-id="2794"></path></svg>