<svg t="1553846825947" class="icon" viewBox="0 0 1024 1024" version="1.1" xmlns="http://www.w3.org/2000/svg" p-id="2518" height="20" width="20"><path d="M278.88016 158.56h-3.04v4.32l2.56-4.96z m690.4 188.16a23.68 23.68 0 0 0-4.96-1.92h-1.76l-154.08-21.44-80-11.2a53.76 53.76 0 0 1-46.4-32l-36.48-72L573.60016 64v-0.96a3.84 3.84 0 0 0 0-1.76 22.08 22.08 0 0 0-2.56-3.04 65.6 65.6 0 0 0-120.16 7.52L336.00016 288h-0.96a52.96 52.96 0 0 1-41.92 24h1.28l-80 11.2-162.4 22.56h-1.12a22.08 22.08 0 0 0-6.72 2.56A66.4 66.4 0 0 0 0.00016 411.04a65.76 65.76 0 0 0 23.68 50.08v0.8a6.4 6.4 0 0 0 2.72 1.28 5.6 5.6 0 0 0 2.08 0.96h-2.24l88.32 87.68 80.96 80A52.64 52.64 0 0 1 213.76016 672a50.24 50.24 0 0 1-2.72 13.12h1.12l-13.76 80-22.08 128-4.32 25.28a23.04 23.04 0 0 0 0 3.52 23.84 23.84 0 0 0 0 4 60.16 60.16 0 0 0-1.76 8.8 66.88 66.88 0 0 0 66.72 66.88 65.6 65.6 0 0 0 32-9.28A22.72 22.72 0 0 0 272.00016 992l0.96-0.8 71.52-39.68 142.08-78.08a48 48 0 0 1 54.4 2.56v-0.96l213.76 118.72h1.28a65.12 65.12 0 0 0 29.76 7.68 66.88 66.88 0 0 0 66.88-66.88 64 64 0 0 0-1.92-9.28 25.76 25.76 0 0 0 0-5.44l-29.28-154.08-16-86.88h0.96a48 48 0 0 1-1.28-6.72 52.96 52.96 0 0 1 16-38.4l61.28-59.04 115.52-112s1.28 0 1.92-0.96 0-0.96 0-1.28A66.88 66.88 0 0 0 1024.00016 411.04a65.92 65.92 0 0 0-54.72-64z m0 80l-43.68 42.4-20.48 19.84-4 4-111.04 107.36A99.84 99.84 0 0 0 758.40016 672a100.64 100.64 0 0 0 1.44 14.56 14.56 14.56 0 0 0 0 2.4v4L784.00016 813.44l3.36 17.6 7.36 38.88 11.52 60.8h-1.6c0 1.44 1.6 2.56 1.6 4.32a19.36 19.36 0 0 1-19.36 19.36c-2.72 0-4.48-1.92-6.88-2.88v1.28l-56.64-32-160-88.48h-1.12a97.92 97.92 0 0 0-100.64 0.96h-1.12l-211.2 116.48a18.88 18.88 0 0 1-12.16 4.8 19.2 19.2 0 0 1-19.2-19.2c0-2.88 1.92-4.8 2.88-7.04h-1.44l9.76-57.76 29.6-173.12a26.56 26.56 0 0 0 0-3.2 97.6 97.6 0 0 0 2.4-22.24 100 100 0 0 0-34.88-76v-0.8l-128-126.56-41.92-41.12 0.96-0.96a18.08 18.08 0 0 1-9.76-16 18.72 18.72 0 0 1 16-18.08v-1.12L127.04016 384l173.76-25.44a100.8 100.8 0 0 0 76.48-48c-1.44 2.4-1.28 2.24-1.28 2.08v-0.8l90.4-174.56 27.84-54.24h0.8a17.6 17.6 0 0 1 34.72 1.92l1.6-0.8 89.12 175.04h-0.8l21.6 42.88A100.32 100.32 0 0 0 720.00016 357.92h1.76l94.88 13.12 140.48 20.48a19.36 19.36 0 0 1 19.2 19.2 18.24 18.24 0 0 1-8.16 14.72z" fill="" p-id="2519"></path></svg>