<svg t="1553846262595" class="icon" viewBox="0 0 1072 1024" version="1.1" xmlns="http://www.w3.org/2000/svg" p-id="2160" height="22" width="22"><path d="M335.648 551.392h-157.536c-86.656 0-157.536 70.88-157.536 157.536v157.536c0 86.64 70.88 157.536 157.536 157.536h157.536c86.64 0 157.536-70.88 157.536-157.536v-157.536c0-86.656-70.88-157.536-157.536-157.536z m78.768 315.072a79.008 79.008 0 0 1-78.768 78.768h-157.536a79.008 79.008 0 0 1-78.768-78.768v-157.536a79.008 79.008 0 0 1 78.768-78.768h157.536a79.008 79.008 0 0 1 78.768 78.768v157.536zM887.04 0h-157.552c-86.64 0-157.536 70.88-157.536 157.536v157.536c0 86.656 70.896 157.536 157.536 157.536h157.552c86.64 0 157.536-70.88 157.536-157.536V157.536C1044.576 70.896 973.68 0 887.04 0z m78.768 315.072a79.008 79.008 0 0 1-78.768 78.768h-157.552a79.008 79.008 0 0 1-78.768-78.768V157.536a79.008 79.008 0 0 1 78.768-78.768h157.552a79.008 79.008 0 0 1 78.768 78.768v157.536z m-78.768 236.32h-157.552c-86.64 0-157.536 70.88-157.536 157.536v157.536c0 86.64 70.896 157.536 157.536 157.536h157.552c86.64 0 157.536-70.88 157.536-157.536v-157.536c0-86.656-70.896-157.536-157.536-157.536z m78.768 315.072a79.008 79.008 0 0 1-78.768 78.768h-157.552a79.008 79.008 0 0 1-78.768-78.768v-157.536a79.008 79.008 0 0 1 78.768-78.768h157.552a79.008 79.008 0 0 1 78.768 78.768v157.536zM335.648 0h-157.536C91.456 0 20.576 70.88 20.576 157.536v157.536c0 86.656 70.88 157.536 157.536 157.536h157.536c86.64 0 157.536-70.88 157.536-157.536V157.536c0-86.64-70.88-157.536-157.536-157.536z m78.768 315.072a79.008 79.008 0 0 1-78.768 78.768h-157.536a79.008 79.008 0 0 1-78.768-78.768V157.536a79.008 79.008 0 0 1 78.768-78.768h157.536a79.008 79.008 0 0 1 78.768 78.768v157.536z" fill="#A5A5A5" p-id="2161"></path></svg>