<svg t="1553846287080" class="icon" viewBox="0 0 1040 1024" version="1.1" xmlns="http://www.w3.org/2000/svg" p-id="2339" height="22" width="22"><path d="M1006.704 861.504c-0.24-2.4-0.56-4.72-0.56-6.896 0-93.44-129.616-201.92-320.64-243.2 39.152-44.736 69.712-105.44 69.712-174.448V252.848C755.216 108.704 653.76 0 518.64 0 383.536 0 282.08 108.704 282.08 252.848V436.96c0 72.672 18.56 136.256 61.552 181.552C180.48 660.64 33.104 752.608 33.104 855.712c0 2.192-2.16 4.496-2.4 6.848-1.568 15.392-6.24 51.504 35.232 73.088 88.912 46.176 257.712 73.76 452.272 73.76 194.592 0 363.648-27.584 452.576-73.792 41.408-21.552 37.456-58.368 35.92-74.112zM345.152 252.848c0-107.696 74.368-188.928 173.488-188.928 99.072 0 173.488 81.232 173.488 188.928V436.96c0 107.68-74.416 188.928-173.488 188.928-99.12 0-173.488-81.232-173.488-188.928V252.848z m596.48 625.936c-79.2 41.12-241.6 66.688-423.84 66.688-182.288 0-344.688-25.568-423.824-66.656-1.472-0.8-2.4-1.424-2.832-1.536a84.32 84.32 0 0 1 0.624-8.16c0.432-4.592 0.864-9.088 0.864-13.408 0-56.736 126.256-157.008 311.552-188.16a233.584 233.584 0 0 0 100.08 22.24c38.944 0 74.944-9.264 106.736-25.552 196.48 26.704 331.952 131.872 331.952 190.368 0 4.208 0.4 8.72 0.864 13.328 0.32 3.36 0.832 8.384 1.168 8.64 0 0-0.8 0.88-3.36 2.208z" fill="#A5A5A5" p-id="2340"></path></svg>