<svg t="1553846154344" class="icon" viewBox="0 0 1039 1024" version="1.1" xmlns="http://www.w3.org/2000/svg" p-id="1383" height="24" width="24"><path d="M992.25569 442.128182L604.479811 38.816308A124.911961 124.911961 0 0 0 513.679839 0.00032a124.959961 124.959961 0 0 0-90.831971 38.815988L35.071989 442.128182c-40.015987 41.615987-34.863989 77.599976-28.255991 92.639971 4.719999 10.655997 20.639994 39.967988 66.479979 39.967987h56.847982v310.255903c0 70.447978 50.623984 136.767957 122.559962 136.767958h165.087948V693.424103c0-35.199989-5.343998-54.831983 30.655991-54.831983h130.463959c35.983989 0 30.63999 19.615994 30.639991 54.831983V1021.760001H774.639758c71.935978 0 122.559962-66.319979 122.559962-136.767958v-310.239903h56.831982c45.855986 0 61.791981-29.327991 66.463979-39.999987 6.655998-15.023995 11.791996-51.007984-28.239991-92.639971z m-38.239988 68.751978H833.27974v374.111883c0 35.199989-22.687993 72.911977-58.639982 72.911978H673.43979v-264.479918c0-70.447978-22.575993-118.687963-94.559971-118.687963H448.46386c-71.999978 0-94.59197 48.239985-94.591971 118.687963v264.479918h-101.151968c-35.951989 0-58.639982-37.711988-58.639982-72.911978V510.88016H73.295977c-1.12 0-2.143999-4.399999-3.087999-4.463998 2.223999-3.871999 6.031998-13.647996 12.367996-20.239994L470.399853 83.152294c11.583996-12.063996 27.935991-19.455994 43.775986-19.295994 15.855995-0.16 31.23199 7.231998 42.799987 19.295994l387.807879 403.039874c6.319998 6.559998 10.127997 16.351995 12.367996 20.223994-0.928 0.064-1.983999 4.463999-3.103999 4.463998z" fill="#A5A5A5" p-id="1384"></path></svg>