<svg t="1553846205280" class="icon" viewBox="0 0 1024 1024" version="1.1" xmlns="http://www.w3.org/2000/svg" p-id="1802" height="22" width="22"><path d="M881.6 220h-114.72a259.68 259.68 0 0 0-512 0H140.16a80 80 0 0 0-80 80v586.08a127.04 127.04 0 0 0 126.88 126.88h646.88a127.04 127.04 0 0 0 126.88-126.88V299.36a80 80 0 0 0-79.2-79.36zM510.88 51.68a212.32 212.32 0 0 1 208 168.32H304A212.32 212.32 0 0 1 510.88 51.68z m401.92 834.4a79.04 79.04 0 0 1-78.88 78.88H187.84a79.04 79.04 0 0 1-78.88-78.88V299.36a32 32 0 0 1 32-32h110.72v96a24 24 0 1 0 48 0v-96h424v96a24 24 0 1 0 48 0v-96h109.92a32 32 0 0 1 32 32z" fill="#A5A5A5" p-id="1803"></path></svg>