<svg t="1553846232104" class="icon" viewBox="0 0 1024 1024" version="1.1" xmlns="http://www.w3.org/2000/svg" p-id="1981" height="22" width="22"><path d="M956.016 253.92c0-87.04-70.88-157.92-157.92-157.92a156.72 156.72 0 0 0-91.568 29.28 20.752 20.752 0 0 0-4.848 29.088c6.656 9.376 19.68 11.6 29.072 4.832a115.712 115.712 0 0 1 67.36-21.504c64 0 116.112 52.112 116.112 116.128 0 49.76-31.6 91.984-75.632 108.432l-1.216-72.896c0-0.512 0-0.912-0.096-1.408a70.784 70.784 0 0 0-20.8-48.064 70.944 70.944 0 0 0-48.16-20.8c-1.008-0.112-2.016-0.208-3.04-0.208l-238.48 4.048c-0.8 0-1.52 0.096-2.32 0.192-24.64 1.008-47.872 11.2-66.048 29.488L98.176 613.168A61.856 61.856 0 0 0 80 657.2c0 5.248 0.912 10.288 2.128 15.248 0.096 4.24 1.408 9.392 5.856 14.944l0.288 0.304c2.72 4.736 5.856 9.376 9.904 13.424l40.384 40.384 0.208 0.096c122.672 121.872 250.72 185.28 322.896 185.28 25.76 0 40.288-8.272 48.672-17.36 0.096 0 0.512 0.096 0.512 0.096l301.904-301.888c0.496-0.512 0.896-1.024 1.408-1.52a97.664 97.664 0 0 0 27.568-67.36v-3.12l-20.912 0.608-20.896 2.112a56.128 56.128 0 0 1-16.56 39.584c-0.4 0.4-0.912 0.912-1.312 1.424L501.248 859.84c-12.72-27.76-10.896-69.664-8.384-86.528l4.448-29.68-29.184 6.768c-22.112 5.04-45.328 7.68-69.056 7.68-131.968 0-249.712-79.28-276.96-99.072-0.112-0.608-0.416-1.2-0.416-1.92 0-5.44 2.128-10.592 5.968-14.432l361.168-361.168a56.016 56.016 0 0 1 38.56-16.464c0.608 0 1.328-0.096 2.032-0.208l234.848-4.032c8.48 0.8 16.672 2.624 22.624 8.688 5.44 5.44 8.48 12.72 8.576 20.4 0 0.496 0 0.896 0.112 1.408l1.312 78.56a114.128 114.128 0 0 1-38.672-7.168c0.096-1.52 0.4-2.944 0.4-4.448a50.928 50.928 0 0 0-50.88-50.88 50.848 50.848 0 0 0 0 101.664c11.104 0 21.2-3.632 29.584-9.6a155.936 155.936 0 0 0 60.16 12.224l2.032 124.192 20.896 0.208 20.8-2.832-2.112-127.216c67.344-17.984 116.912-79.264 116.912-152.064z m-556.96 544.944c17.28 0 34.448-1.216 51.2-3.648-0.704 25.152 1.728 61.808 18.176 90.48a67.984 67.984 0 0 1-6.768 0.304c-43.52 0-137.92-36.048-243.84-126.72 50.992 21.6 113.904 39.584 181.248 39.584z" fill="#C49A6C" p-id="1982"></path></svg>